# 3ds Max Wavefront OBJ Exporter v0.97b - (c)2007 guruware
# File Created: 31.01.2019 18:05:18

mtllib Teddy.mtl

#
# object Teddy
#

v  -0.1750 0.2128 0.0300
v  -0.0700 0.2450 0.0022
v  -0.0464 0.3138 -0.0322
v  -0.1407 0.1558 0.0132
v  -0.0589 0.3201 -0.0698
v  -0.1827 0.2261 -0.0402
v  -0.0805 0.2148 -0.0625
v  -0.1326 0.1442 -0.0386
v  -0.1391 0.1548 -0.0893
v  -0.0681 0.2437 -0.1211
v  -0.1730 0.2115 -0.0982
v  -0.0451 0.3130 -0.1112
v  0.0006 0.3784 0.0322
v  -0.0883 0.3854 0.0185
v  0.0012 0.3141 -0.0014
v  -0.0970 0.3845 -0.0685
v  -0.0866 0.3872 -0.1552
v  -0.1389 0.5452 -0.0724
v  -0.1270 0.5441 -0.1846
v  -0.1303 0.5463 0.0307
v  -0.0346 0.2451 0.0144
v  0.0009 0.2452 0.0194
v  0.1344 0.5443 -0.1805
v  0.1429 0.5455 -0.0681
v  0.0935 0.3874 -0.1525
v  0.1012 0.3847 -0.0654
v  0.0899 0.3856 0.0212
v  0.0496 0.3139 -0.0307
v  0.0366 0.2452 0.0155
v  0.0005 0.1533 0.0527
v  -0.0359 0.1532 0.0464
v  -0.0846 0.1520 0.0278
v  -0.0799 0.2261 -0.0626
v  -0.1078 0.1241 -0.0479
v  -0.1170 0.0819 -0.1310
v  -0.1228 0.0749 -0.0366
v  -0.0929 0.0141 -0.0819
v  -0.1046 -0.0018 -0.0230
v  0.0029 -0.0023 -0.0883
v  -0.0347 -0.0011 0.0382
v  -0.0861 -0.0011 0.0374
v  -0.0344 0.0012 0.1455
v  -0.1323 0.0009 0.1176
v  -0.0909 0.0713 0.0388
v  -0.1352 0.0880 0.1159
v  -0.0847 0.0994 0.1302
v  -0.0628 0.0826 0.0391
v  -0.0347 0.0715 0.0483
v  -0.0342 0.0884 0.1447
v  0.1311 0.5466 0.0347
v  0.0724 0.2451 0.0044
v  0.0633 0.3203 -0.0679
v  0.0509 0.3131 -0.1097
v  0.0006 0.0716 0.0555
v  0.1083 -0.0015 -0.0197
v  0.0984 0.0143 -0.0790
v  0.0925 0.0715 0.0416
v  0.1267 0.0751 -0.0328
v  0.1237 0.0821 -0.1273
v  0.0863 0.1522 0.0305
v  0.1107 0.1243 -0.0452
v  0.0849 0.2150 -0.0600
v  0.0743 0.2438 -0.1189
v  0.0365 -0.0010 0.0393
v  0.0320 0.0013 0.1421
v  0.0361 0.0716 0.0494
v  0.0316 0.0884 0.1413
v  0.0835 0.0996 0.1328
v  0.0643 0.0828 0.0411
v  0.1353 0.0883 0.1246
v  0.1325 0.0012 0.1260
v  0.0878 -0.0009 0.0401
v  0.0008 -0.0010 0.0457
v  0.0371 0.1533 0.0476
v  -0.1896 0.7321 -0.0760
v  -0.1232 0.6948 -0.0746
v  -0.1829 0.7157 -0.1018
v  -0.1228 0.6872 -0.1006
v  -0.1236 0.6877 -0.0485
v  -0.1837 0.7163 -0.0497
v  -0.2272 0.6305 -0.0426
v  -0.2444 0.6252 -0.0758
v  -0.2262 0.6298 -0.1085
v  -0.1410 0.6049 -0.1069
v  -0.0929 0.6895 -0.1607
v  -0.1476 0.5994 -0.0740
v  -0.1420 0.6056 -0.0411
v  -0.0956 0.6913 0.0144
v  -0.0943 0.6930 -0.0732
v  0.0826 0.0498 0.2316
v  0.1012 0.0585 0.2269
v  0.0828 0.0142 0.2324
v  0.1171 0.0142 0.2238
v  0.1198 0.0497 0.2223
v  0.2181 0.1554 -0.0073
v  0.2029 0.1372 -0.0072
v  0.2295 0.1553 -0.0332
v  0.2072 0.1251 -0.0332
v  0.2037 0.1367 -0.0596
v  0.2189 0.1549 -0.0594
v  0.0966 0.6915 0.0173
v  0.0980 0.6932 -0.0702
v  0.0003 0.7000 0.0314
v  0.0035 0.6979 -0.1775
v  0.0993 0.6897 -0.1577
v  0.1364 0.1445 -0.0345
v  0.1429 0.1561 0.0176
v  0.2482 0.6257 -0.0682
v  0.1865 0.7167 -0.0440
v  0.2301 0.6309 -0.0356
v  0.1265 0.6880 -0.0446
v  0.1269 0.6951 -0.0708
v  0.1933 0.7325 -0.0701
v  0.1873 0.7161 -0.0961
v  0.1273 0.6875 -0.0968
v  0.2311 0.6303 -0.1014
v  0.1459 0.6052 -0.1025
v  0.1515 0.5997 -0.0694
v  0.1449 0.6059 -0.0366
v  0.1785 0.2119 -0.0928
v  0.1445 0.1551 -0.0850
v  0.1864 0.2265 -0.0346
v  0.1769 0.2130 0.0128
v  -0.0956 0.0141 0.2296
v  -0.1297 0.0139 0.2200
v  -0.1991 0.1363 -0.0658
v  -0.2143 0.1544 -0.0661
v  -0.2033 0.1246 -0.0395
v  -0.1999 0.1368 -0.0134
v  -0.1139 0.0582 0.2236
v  -0.0954 0.0496 0.2289
v  -0.1324 0.0494 0.2184
v  -0.2257 0.1548 -0.0402
v  -0.2151 0.1550 -0.0139
v  -0.0643 0.4612 0.0510
v  -0.0000 0.5467 0.0584
v  -0.0606 0.3974 0.0485
v  -0.0429 0.4508 0.0681
v  -0.0001 0.4704 0.0675
v  0.0647 0.4614 0.0530
v  0.0612 0.3975 0.0503
v  0.0003 0.3883 0.0478
v  -0.0413 0.4017 0.0674
v  -0.0003 0.4586 0.0843
v  0.0428 0.4509 0.0694
v  0.0413 0.4018 0.0686
v  -0.0002 0.3954 0.0806
v  0.0040 0.5440 -0.2007
v  0.0037 0.3871 -0.1720
v  0.0031 0.3128 -0.1286
v  0.0034 0.2436 -0.1407
v  0.0037 0.0818 -0.1473
# 152 vertices

vn -0.4417 0.2971 0.8465
vn -0.1763 0.2748 0.9452
vn -0.7289 0.0561 0.6823
vn 0.3198 -0.6341 0.7040
vn -0.9897 0.1407 -0.0254
vn -0.7454 0.6665 -0.0163
vn 0.7779 -0.6279 -0.0260
vn 0.5531 -0.8325 0.0335
vn 0.2488 -0.6873 -0.6824
vn -0.3240 0.0946 -0.9413
vn -0.5860 0.2580 -0.7681
vn -0.6030 -0.0708 -0.7946
vn 0.0204 -0.7126 0.7013
vn -0.7247 -0.4765 0.4977
vn 0.0473 -0.0759 0.9960
vn -0.9178 -0.3969 -0.0098
vn -0.6404 -0.4343 -0.6334
vn -0.9823 -0.1872 -0.0101
vn -0.6966 -0.0561 -0.7152
vn -0.7615 -0.0115 0.6481
vn -0.2554 0.3704 0.8931
vn -0.0149 0.3157 0.9487
vn 0.7184 -0.0545 -0.6934
vn 0.9825 -0.1851 0.0201
vn 0.6606 -0.4329 -0.6134
vn 0.9186 -0.3949 0.0185
vn 0.6951 -0.4967 0.5198
vn 0.6702 0.0853 0.7372
vn 0.2270 0.3709 0.9005
vn -0.0153 0.1779 0.9839
vn -0.2561 0.1732 0.9510
vn -0.7158 0.2293 0.6596
vn -0.9657 0.2590 0.0183
vn -0.9549 0.2886 0.0697
vn -0.7232 -0.1659 -0.6704
vn -0.9938 -0.0091 0.1104
vn -0.5319 -0.6983 -0.4790
vn -0.6833 -0.7300 0.0169
vn 0.0086 -0.8683 -0.4960
vn 0.2010 -0.9373 0.2846
vn -0.5600 -0.8274 -0.0434
vn 0.7090 -0.6513 0.2702
vn -0.7216 -0.6777 -0.1413
vn -0.9268 0.3446 0.1493
vn -0.7673 0.6237 -0.1490
vn -0.0291 0.9952 0.0937
vn -0.1646 0.6645 0.7289
vn 0.3327 0.3342 0.8818
vn 0.7238 0.6310 0.2792
vn 0.7412 -0.0099 0.6712
vn 0.2314 0.3078 0.9229
vn 0.9897 0.1428 0.0051
vn 0.6273 -0.0694 -0.7757
vn -0.0153 -0.0493 0.9987
vn 0.6840 -0.7285 0.0380
vn 0.5479 -0.6971 -0.4624
vn 0.9212 0.3435 0.1828
vn 0.9904 0.0009 0.1382
vn 0.7467 -0.1595 -0.6458
vn 0.7000 0.2341 0.6747
vn 0.9475 0.3068 0.0901
vn 0.4996 -0.8660 0.0212
vn 0.3353 0.0893 -0.9379
vn -0.2073 -0.9386 0.2757
vn -0.7208 -0.6593 0.2138
vn -0.3620 0.3374 0.8690
vn -0.7421 0.6345 0.2160
vn 0.0217 0.9948 0.0990
vn 0.1406 0.6648 0.7336
vn 0.7808 0.6202 -0.0753
vn 0.7389 -0.6692 -0.0790
vn 0.5652 -0.8247 -0.0228
vn -0.0101 -0.7117 0.7024
vn 0.2264 0.1737 0.9584
vn -0.3034 0.9528 -0.0145
vn 0.2669 0.9637 -0.0086
vn -0.1512 0.6115 -0.7766
vn -0.1802 0.7977 -0.5755
vn -0.2006 0.8102 0.5507
vn -0.1749 0.6274 0.7589
vn -0.5936 -0.2711 0.7577
vn -0.9265 -0.3760 -0.0104
vn -0.5700 -0.2868 -0.7700
vn -0.8235 -0.1720 -0.5406
vn -0.4472 0.6727 -0.5895
vn -0.7506 -0.6607 -0.0062
vn -0.8350 -0.1636 0.5253
vn -0.4670 0.6735 0.5730
vn -0.0677 0.9977 -0.0097
vn -0.3822 0.3496 0.8554
vn 0.1767 0.6443 0.7441
vn -0.3097 -0.5399 0.7827
vn 0.5767 -0.5637 0.5913
vn 0.7165 0.3270 0.6162
vn 0.7633 -0.0904 0.6398
vn 0.2842 -0.7153 0.6384
vn 0.9986 -0.0497 0.0159
vn 0.3252 -0.9455 0.0147
vn 0.2995 -0.7227 -0.6229
vn 0.7912 -0.1216 -0.5994
vn 0.4477 0.6745 0.5871
vn 0.0658 0.9978 -0.0077
vn -0.0110 0.7493 0.6621
vn 0.0097 0.7296 -0.6838
vn 0.4637 0.6737 -0.5755
vn -0.5520 -0.8337 0.0165
vn -0.2990 -0.5454 0.7830
vn 0.9272 -0.3741 0.0181
vn 0.1500 0.6277 0.7639
vn 0.5705 -0.2698 0.7757
vn 0.1817 0.8107 0.5566
vn -0.2686 0.9631 -0.0169
vn 0.3016 0.9534 -0.0052
vn 0.1737 0.6119 -0.7716
vn 0.1962 0.7981 -0.5696
vn 0.5941 -0.2855 -0.7520
vn 0.8401 -0.1702 -0.5150
vn 0.7519 -0.6591 0.0169
vn 0.8188 -0.1618 0.5508
vn 0.6089 0.2593 -0.7497
vn -0.2262 -0.6878 -0.6897
vn 0.7385 0.6724 0.0499
vn 0.4644 0.4120 0.7840
vn 0.2517 -0.5426 0.8014
vn -0.6232 -0.5615 0.5444
vn -0.2786 -0.7233 -0.6318
vn -0.7721 -0.1233 -0.6235
vn -0.3234 -0.9462 0.0047
vn -0.3022 -0.7159 0.6294
vn -0.2154 0.6471 0.7313
vn 0.3186 0.3507 0.8806
vn -0.7642 0.3282 0.5552
vn -0.9985 -0.0519 -0.0149
vn -0.8064 -0.1267 0.5776
vn -0.4578 0.0125 0.8889
vn -0.0154 0.1286 0.9916
vn -0.5016 -0.5320 0.6822
vn -0.4585 0.2615 0.8494
vn -0.0140 0.4828 0.8756
vn 0.4302 0.0135 0.9026
vn 0.4815 -0.5309 0.6974
vn -0.0053 -0.9129 0.4081
vn -0.4367 -0.5160 0.7369
vn -0.0143 0.4416 0.8971
vn 0.4315 0.2624 0.8631
vn 0.4149 -0.5150 0.7501
vn -0.0113 -0.6309 0.7758
vn 0.0154 -0.0140 -0.9998
vn 0.0147 -0.3650 -0.9309
vn 0.0153 -0.1917 -0.9813
vn 0.0152 0.1223 -0.9924
vn 0.0151 -0.2626 -0.9648
# 152 vertex normals

vt 0.0625 0.5938 0.0000
vt 0.0938 0.6953 0.0000
vt 0.1406 0.7109 0.0000
vt 0.0859 0.6250 0.0000
vt 0.1875 0.7031 0.0000
vt 0.1484 0.5859 0.0000
vt 0.1797 0.6797 0.0000
vt 0.1484 0.6328 0.0000
vt 0.2188 0.6250 0.0000
vt 0.2578 0.6953 0.0000
vt 0.2266 0.5938 0.0000
vt 0.2422 0.7109 0.0000
vt 0.1953 0.7031 0.0000
vt 0.0313 0.5391 0.0000
vt 0.0313 0.7031 0.0000
vt 0.0313 0.6641 0.0000
vt 0.3672 0.7031 0.0000
vt 0.0313 0.6172 0.0000
vt 0.0313 0.6318 0.0000
vt 0.3672 0.5313 0.0000
vt 0.1875 0.5781 0.0000
vt 0.1875 0.6406 0.0000
vt 0.2266 0.5859 0.0000
vt 0.2266 0.6406 0.0000
vt 0.1563 0.6406 0.0000
vt 0.1563 0.5859 0.0000
vt 0.1484 0.5391 0.0000
vt 0.1875 0.5234 0.0000
vt 0.2344 0.5391 0.0000
vt 0.2344 0.6250 0.0000
vt 0.3047 0.6719 0.0000
vt 0.3359 0.6328 0.0000
vt 0.1875 0.6250 0.0000
vt 0.1875 0.6172 0.0000
vt 0.1484 0.6250 0.0000
vt 0.0547 0.6328 0.0000
vt 0.0781 0.6719 0.0000
vt 0.1875 0.6719 0.0000
vt 0.6953 0.5078 0.0000
vt 0.7344 0.6953 0.0000
vt 0.9609 0.5078 0.0000
vt 0.8203 0.7266 0.0000
vt 0.7266 0.8125 0.0000
vt 0.7266 0.8828 0.0000
vt 0.8359 0.8125 0.0000
vt 0.8359 0.9297 0.0000
vt 0.9453 0.8828 0.0000
vt 0.9453 0.8125 0.0000
vt 0.3672 0.5391 0.0000
vt 0.1893 0.8371 0.0000
vt 0.1584 0.8000 0.0000
vt 0.1507 0.8265 0.0000
vt 0.1584 0.7575 0.0000
vt 0.1893 0.7575 0.0000
vt 0.1893 0.8000 0.0000
vt 0.2279 0.8000 0.0000
vt 0.2279 0.7575 0.0000
vt 0.2356 0.8265 0.0000
vt 0.2356 0.7734 0.0000
vt 0.3051 0.7415 0.0000
vt 0.3359 0.7628 0.0000
vt 0.1893 0.7681 0.0000
vt 0.1893 0.7734 0.0000
vt 0.1507 0.7734 0.0000
vt 0.1893 0.7415 0.0000
vt 0.0581 0.7628 0.0000
vt 0.0812 0.7415 0.0000
vt 0.2433 0.7097 0.0000
vt 0.2279 0.7893 0.0000
vt 0.2588 0.7256 0.0000
vt 0.2202 0.7681 0.0000
vt 0.1507 0.8000 0.0000
vt 0.1893 0.7203 0.0000
vt 0.0890 0.7681 0.0000
vt 0.0890 0.7893 0.0000
vt 0.0967 0.7256 0.0000
vt 0.1430 0.7097 0.0000
vt 0.1816 0.7309 0.0000
vt 0.1507 0.7628 0.0000
vt 0.7017 0.2478 0.0000
vt 0.9278 0.1939 0.0000
vt 0.6528 0.0705 0.0000
vt 0.8122 0.0089 0.0000
vt 0.7004 0.2516 0.0000
vt 0.6505 0.0707 0.0000
vt 0.9310 0.1966 0.0000
vt 0.8131 0.0079 0.0000
vt 0.7813 0.8984 0.0000
vt 0.8984 0.8984 0.0000
vt 0.7813 0.8359 0.0000
vt 0.8438 0.8203 0.0000
vt 0.9063 0.8359 0.0000
vt 0.7656 0.8125 0.0000
vt 0.7734 0.9219 0.0000
vt 0.8281 0.7891 0.0000
vt 0.8984 0.8125 0.0000
vt 0.8984 0.9219 0.0000
vt 0.1278 0.4928 0.0000
vt 0.1897 0.3747 0.0000
vt 0.0535 0.2290 0.0000
vt 0.2868 0.2290 0.0000
vt 0.1152 0.0126 0.0000
vt 0.2868 0.5036 0.0000
vt 0.1906 0.4502 0.0000
vt 0.2288 0.3789 0.0000
vt 0.2854 0.3554 0.0000
vt 0.3712 0.3769 0.0000
vt 0.2868 0.0000 0.0000
vt 0.4584 0.0126 0.0000
vt 0.5201 0.2290 0.0000
vt 0.4459 0.4928 0.0000
vt 0.3703 0.4502 0.0000
vt 0.2854 0.4609 0.0000
vt 0.2279 0.4333 0.0000
vt 0.2807 0.3698 0.0000
vt 0.3441 0.3800 0.0000
vt 0.3430 0.4333 0.0000
vt 0.2854 0.4408 0.0000
vt 0.0735 0.6512 0.0000
vt 0.0349 0.5822 0.0000
vt 0.1661 0.5822 0.0000
vt 0.0658 0.5131 0.0000
vt 0.1661 0.5078 0.0000
vt 0.2588 0.5131 0.0000
vt 0.2973 0.5822 0.0000
vt 0.2510 0.6512 0.0000
vt 0.1661 0.6512 0.0000
vt 0.2125 0.6884 0.0000
vt 0.1661 0.6884 0.0000
vt 0.1661 0.7203 0.0000
vt 0.1198 0.6884 0.0000
vt 0.0967 0.7203 0.0000
vt 0.1661 0.7809 0.0000
vt 0.0527 0.7809 0.0000
vt 0.0658 0.8265 0.0000
vt 0.1661 0.8318 0.0000
vt 0.2588 0.8265 0.0000
vt 0.2733 0.7809 0.0000
vt 0.2356 0.7203 0.0000
vt 0.9453 0.8750 0.0000
vt 0.8359 0.9219 0.0000
vt 0.7188 0.8750 0.0000
vt 0.7188 0.8125 0.0000
# 143 texture coords

g Teddy
usemtl None
s 1
f 1/1/1 2/2/2 3/3/3 
f 4/4/4 2/2/2 1/1/1 
f 5/5/5 6/6/6 3/3/3 
f 6/6/6 1/1/1 3/3/3 
f 2/2/2 4/4/4 7/7/7 
f 4/4/4 8/8/8 7/7/7 
f 8/8/8 9/9/9 7/7/7 
f 7/7/7 9/9/9 10/10/10 
f 9/9/9 11/11/11 10/10/10 
f 10/10/10 11/11/11 12/12/12 
f 12/12/12 11/11/11 5/13/5 
f 11/11/11 6/6/6 5/13/5 
f 13/14/13 14/15/14 15/14/15 
f 15/14/15 14/15/14 3/16/3 
f 14/15/14 16/13/16 3/16/3 
f 3/16/3 16/13/16 5/13/5 
f 5/13/5 16/13/16 12/17/12 
f 12/17/12 16/13/16 17/17/17 
f 16/13/16 18/13/18 17/17/17 
f 17/17/17 18/13/18 19/17/19 
f 16/13/16 14/15/14 18/13/18 
f 14/15/14 20/15/20 18/13/18 
f 2/15/2 21/18/21 3/16/3 
f 3/16/3 21/18/21 15/14/15 
f 21/18/21 22/14/22 15/14/15 
f 23/17/23 24/13/24 25/17/25 
f 25/17/25 24/13/24 26/13/26 
f 24/13/24 27/15/27 26/13/26 
f 26/13/26 27/15/27 28/16/28 
f 27/15/27 13/14/13 28/16/28 
f 13/14/13 15/14/15 28/16/28 
f 28/16/28 15/14/15 29/18/29 
f 15/14/15 22/14/22 29/18/29 
f 29/18/29 22/14/22 30/14/30 
f 22/14/22 21/18/21 30/14/30 
f 30/14/30 21/18/21 31/19/31 
f 21/18/21 2/15/2 31/19/31 
f 31/19/31 2/15/2 32/15/32 
f 2/15/2 33/13/33 32/15/32 
f 32/15/32 33/13/33 34/13/34 
f 33/13/33 35/17/35 34/13/34 
f 34/13/34 35/17/35 36/13/36 
f 35/17/35 37/17/37 36/13/36 
f 36/13/36 37/17/37 38/13/38 
f 37/17/37 39/20/39 38/13/38 
f 39/20/39 40/18/40 38/13/38 
f 38/13/38 40/18/40 41/15/41 
f 40/18/40 42/18/42 41/15/41 
f 42/18/42 43/15/43 41/15/41 
f 41/15/41 43/15/43 44/15/44 
f 43/15/43 45/15/45 44/15/44 
f 45/15/45 46/16/46 44/15/44 
f 44/15/44 46/16/46 47/16/47 
f 47/16/47 46/16/46 48/18/48 
f 46/16/46 49/18/49 48/18/48 
f 49/18/49 42/18/42 48/18/48 
f 48/18/48 42/18/42 40/18/40 
f 34/13/34 36/13/36 32/15/32 
f 32/15/32 36/13/36 44/15/44 
f 36/13/36 38/13/38 44/15/44 
f 44/15/44 38/13/38 41/15/41 
f 27/15/27 24/13/24 50/15/50 
f 35/17/35 33/13/33 10/17/10 
f 29/18/29 51/15/51 28/16/28 
f 28/16/28 52/13/52 26/13/26 
f 52/13/52 53/17/53 26/13/26 
f 26/13/26 53/17/53 25/17/25 
f 44/15/44 47/16/47 32/15/32 
f 32/15/32 47/16/47 31/19/31 
f 47/16/47 48/18/48 31/19/31 
f 31/19/31 48/18/48 30/14/30 
f 48/18/48 54/14/54 30/14/30 
f 55/13/55 39/20/39 56/17/56 
f 57/15/57 55/13/55 58/13/58 
f 55/13/55 56/17/56 58/13/58 
f 58/13/58 56/17/56 59/17/59 
f 57/15/57 58/13/58 60/15/60 
f 60/15/60 58/13/58 61/13/61 
f 58/13/58 59/17/59 61/13/61 
f 61/13/61 59/17/59 62/13/62 
f 59/17/59 63/17/63 62/13/62 
f 64/18/64 65/18/65 66/18/66 
f 65/18/65 67/18/67 66/18/66 
f 67/18/67 68/16/68 66/18/66 
f 66/18/66 68/16/68 69/16/69 
f 69/16/69 68/16/68 57/15/57 
f 68/16/68 70/15/70 57/15/57 
f 70/15/70 71/15/71 57/15/57 
f 71/15/71 72/15/72 57/15/57 
f 57/15/57 72/15/72 55/13/55 
f 72/15/72 64/18/64 55/13/55 
f 55/13/55 64/18/64 39/20/39 
f 64/18/64 73/14/73 39/20/39 
f 39/20/39 73/14/73 40/18/40 
f 40/18/40 73/14/73 48/18/48 
f 48/18/48 73/14/73 54/14/54 
f 73/14/73 66/18/66 54/14/54 
f 54/14/54 66/18/66 30/14/30 
f 66/18/66 74/19/74 30/14/30 
f 30/14/30 74/19/74 29/18/29 
f 29/18/29 74/19/74 51/15/51 
f 74/19/74 60/15/60 51/15/51 
f 51/15/51 60/15/60 62/13/62 
f 60/15/60 61/13/61 62/13/62 
f 72/15/72 65/18/65 64/18/64 
f 73/14/73 64/18/64 66/18/66 
f 72/15/72 71/15/71 65/18/65 
f 66/18/66 69/16/69 74/19/74 
f 74/19/74 69/16/69 60/15/60 
f 69/16/69 57/15/57 60/15/60 
f 75/21/75 76/22/76 77/23/77 
f 76/22/76 78/24/78 77/23/77 
f 79/25/79 76/22/76 80/26/80 
f 80/26/80 76/22/76 75/21/75 
f 81/27/81 80/26/80 82/28/82 
f 80/26/80 75/21/75 82/28/82 
f 75/21/75 77/23/77 82/28/82 
f 82/28/82 77/23/77 83/29/83 
f 77/23/77 78/24/78 83/29/83 
f 83/29/83 78/24/78 84/30/84 
f 78/24/78 85/31/85 84/30/84 
f 85/31/85 19/32/19 84/30/84 
f 19/32/19 18/33/18 84/30/84 
f 84/30/84 18/33/18 86/34/86 
f 18/33/18 87/35/87 86/34/86 
f 87/35/87 81/27/81 86/34/86 
f 81/27/81 82/28/82 86/34/86 
f 82/28/82 83/29/83 86/34/86 
f 86/34/86 83/29/83 84/30/84 
f 18/33/18 20/36/20 87/35/87 
f 20/36/20 88/37/88 87/35/87 
f 87/35/87 88/37/88 79/25/79 
f 88/37/88 89/38/89 79/25/79 
f 79/25/79 89/38/89 76/22/76 
f 76/22/76 89/38/89 78/24/78 
f 78/24/78 89/38/89 85/31/85 
f 67/39/67 90/40/90 68/41/68 
f 90/40/90 91/42/91 68/41/68 
f 67/41/67 65/39/65 90/42/90 
f 65/39/65 92/40/92 90/42/90 
f 92/42/92 65/41/65 93/40/93 
f 65/41/65 71/39/71 93/40/93 
f 93/42/93 71/41/71 94/40/94 
f 71/41/71 70/39/70 94/40/94 
f 95/43/95 96/44/96 97/45/97 
f 96/44/96 98/46/98 97/45/97 
f 98/46/98 99/47/99 97/45/97 
f 97/45/97 99/47/99 100/48/100 
f 101/15/101 102/13/102 103/14/103 
f 88/15/88 103/14/103 89/13/89 
f 89/13/89 103/14/103 104/49/104 
f 103/14/103 102/13/102 104/49/104 
f 104/49/104 102/13/102 105/17/105 
f 85/17/85 89/13/89 104/49/104 
f 98/40/98 96/42/96 106/39/106 
f 106/39/106 96/42/96 107/41/107 
f 108/50/108 109/51/109 110/52/110 
f 111/53/111 109/51/109 112/54/112 
f 112/54/112 109/51/109 113/55/113 
f 113/55/113 114/56/114 112/54/112 
f 114/56/114 115/57/115 112/54/112 
f 109/51/109 108/50/108 113/55/113 
f 113/55/113 108/50/108 114/56/114 
f 108/50/108 116/58/116 114/56/114 
f 114/56/114 116/58/116 115/57/115 
f 116/58/116 117/59/117 115/57/115 
f 115/57/115 117/59/117 105/60/105 
f 105/60/105 117/59/117 23/61/23 
f 23/61/23 117/59/117 24/62/24 
f 117/59/117 118/63/118 24/62/24 
f 24/62/24 118/63/118 119/64/119 
f 119/64/119 118/63/118 110/52/110 
f 110/52/110 118/63/118 108/50/108 
f 108/50/108 118/63/118 116/58/116 
f 118/63/118 117/59/117 116/58/116 
f 105/60/105 102/65/102 115/57/115 
f 115/57/115 102/65/102 112/54/112 
f 102/65/102 111/53/111 112/54/112 
f 24/62/24 119/64/119 50/66/50 
f 50/66/50 119/64/119 101/67/101 
f 119/64/119 111/53/111 101/67/101 
f 111/53/111 102/65/102 101/67/101 
f 53/68/53 120/69/120 63/70/63 
f 120/69/120 121/71/121 63/70/63 
f 122/72/122 120/69/120 52/73/52 
f 120/69/120 53/68/53 52/73/52 
f 107/74/107 123/75/123 51/76/51 
f 51/76/51 123/75/123 28/77/28 
f 123/75/123 122/72/122 28/77/28 
f 28/77/28 122/72/122 52/73/52 
f 63/70/63 121/71/121 62/78/62 
f 121/71/121 106/79/106 62/78/62 
f 106/79/106 107/74/107 62/78/62 
f 62/78/62 107/74/107 51/76/51 
f 96/40/96 95/42/95 107/39/107 
f 107/39/107 95/42/95 123/41/123 
f 119/80/119 110/81/110 111/82/111 
f 111/82/111 110/81/110 109/83/109 
f 42/39/42 124/40/124 43/41/43 
f 43/41/43 124/40/124 125/42/125 
f 87/84/87 79/85/79 81/86/81 
f 81/86/81 79/85/79 80/87/80 
f 126/40/126 127/42/127 9/39/9 
f 9/39/9 127/42/127 11/41/11 
f 128/40/128 126/42/126 8/39/8 
f 8/39/8 126/42/126 9/41/9 
f 128/42/128 8/41/8 129/40/129 
f 129/40/129 8/41/8 4/39/4 
f 92/88/92 93/89/93 90/90/90 
f 90/90/90 93/89/93 91/91/91 
f 93/89/93 94/92/94 91/91/91 
f 123/39/123 95/40/95 122/41/122 
f 95/40/95 97/42/97 122/41/122 
f 120/39/120 100/40/100 121/41/121 
f 100/40/100 99/42/99 121/41/121 
f 121/39/121 99/40/99 106/41/106 
f 99/40/99 98/42/98 106/41/106 
f 97/40/97 100/42/100 122/39/122 
f 100/42/100 120/41/120 122/39/122 
f 91/40/91 94/42/94 68/39/68 
f 94/42/94 70/41/70 68/39/68 
f 130/40/130 131/42/131 46/39/46 
f 131/42/131 49/41/49 46/39/46 
f 124/42/124 42/41/42 131/40/131 
f 42/41/42 49/39/49 131/40/131 
f 45/41/45 43/39/43 132/42/132 
f 43/39/43 125/40/125 132/42/132 
f 45/39/45 132/40/132 46/41/46 
f 132/40/132 130/42/130 46/41/46 
f 133/40/133 134/42/134 6/39/6 
f 134/42/134 1/41/1 6/39/6 
f 1/39/1 134/40/134 4/41/4 
f 134/40/134 129/42/129 4/41/4 
f 11/39/11 127/40/127 6/41/6 
f 127/40/127 133/42/133 6/41/6 
f 132/93/132 125/94/125 130/95/130 
f 130/95/130 125/94/125 131/96/131 
f 125/94/125 124/97/124 131/96/131 
f 14/98/14 135/99/135 20/100/20 
f 135/99/135 136/101/136 20/100/20 
f 136/101/136 88/102/88 20/100/20 
f 13/103/13 137/104/137 14/98/14 
f 14/98/14 137/104/137 135/99/135 
f 137/104/137 138/105/138 135/99/135 
f 138/105/138 139/106/139 135/99/135 
f 135/99/135 139/106/139 136/101/136 
f 139/106/139 140/107/140 136/101/136 
f 88/102/88 136/101/136 103/108/103 
f 103/108/103 136/101/136 101/109/101 
f 101/109/101 136/101/136 50/110/50 
f 136/101/136 140/107/140 50/110/50 
f 50/110/50 140/107/140 27/111/27 
f 140/107/140 141/112/141 27/111/27 
f 27/111/27 141/112/141 13/103/13 
f 141/112/141 142/113/142 13/103/13 
f 13/103/13 142/113/142 137/104/137 
f 142/113/142 143/114/143 137/104/137 
f 137/104/137 143/114/143 138/105/138 
f 143/114/143 144/115/144 138/105/138 
f 138/105/138 144/115/144 139/106/139 
f 144/115/144 145/116/145 139/106/139 
f 139/106/139 145/116/145 140/107/140 
f 140/107/140 145/116/145 141/112/141 
f 145/116/145 146/117/146 141/112/141 
f 141/112/141 146/117/146 142/113/142 
f 146/117/146 147/118/147 142/113/142 
f 142/113/142 147/118/147 143/114/143 
f 143/114/143 147/118/147 144/115/144 
f 147/118/147 146/117/146 144/115/144 
f 144/115/144 146/117/146 145/116/145 
f 17/119/17 19/120/19 148/121/148 
f 19/120/19 85/122/85 148/121/148 
f 85/122/85 104/123/104 148/121/148 
f 104/123/104 105/124/105 148/121/148 
f 105/124/105 23/125/23 148/121/148 
f 23/125/23 25/126/25 148/121/148 
f 148/121/148 25/126/25 149/127/149 
f 25/126/25 53/128/53 149/127/149 
f 149/127/149 53/128/53 150/129/150 
f 53/128/53 151/130/151 150/129/150 
f 150/129/150 151/130/151 12/131/12 
f 12/131/12 151/130/151 10/132/10 
f 151/130/151 152/133/152 10/132/10 
f 10/132/10 152/133/152 35/134/35 
f 35/134/35 152/133/152 37/135/37 
f 37/135/37 152/133/152 39/136/39 
f 39/136/39 152/133/152 56/137/56 
f 56/137/56 152/133/152 59/138/59 
f 59/138/59 152/133/152 63/139/63 
f 152/133/152 151/130/151 63/139/63 
f 63/139/63 151/130/151 53/128/53 
f 150/129/150 12/131/12 149/127/149 
f 12/131/12 17/119/17 149/127/149 
f 17/119/17 148/121/148 149/127/149 
f 127/48/127 126/140/126 133/45/133 
f 126/140/126 128/141/128 133/45/133 
f 128/141/128 129/142/129 133/45/133 
f 129/142/129 134/143/134 133/45/133 
# 0 polygons - 298 triangles

